#!OML:ASF F:\VICON\USERDATA\INSTALL\Justin_Nancy\Justin_Nancy.ASF
:FULLY-SPECIFIED
:DEGREES
99
root 0.787684 16.89 -3.70368 0.734758 4.37607 7.66814
lowerback 5.1729 -3.02642 -9.88854
upperback 0.50146 -4.55638 1.82469
thorax -1.4569 -2.22466 7.72941
lowerneck -16.3607 -2.00918 -9.30666
upperneck 23.6191 -0.915913 2.56243
head 10.3389 -0.959744 2.34641
rclavicle 4.36332e-014 -7.15625e-015
rhumerus -42.1173 -15.2616 -73.6954
rradius 26.8807
rwrist 11.9516
rhand -14.5677 14.2707
rfingers 7.12502
rthumb 11.5816 -15.3893
lclavicle 4.36332e-014 -7.15625e-015
lhumerus -24.072 -3.75627 83.5419
lradius 45.0041
lwrist -2.33258
lhand -16.7724 24.4564
lfingers 7.12502
lthumb 9.45495 54.2243
rfemur -31.9971 -0.283821 12.1581
rtibia 19.5396
rfoot -5.50317 -6.32306
rtoes -14.7352
lfemur 18.5296 -3.48172 -30.7641
ltibia 19.0743
lfoot -11.3691 -5.74779
ltoes -20.5738
100
root 0.764494 16.9075 -3.41943 0.67827 4.33804 7.44904
lowerback 4.88102 -3.02744 -9.80345
upperback 0.560982 -4.51889 1.92339
thorax -1.23663 -2.22163 7.76143
lowerneck -16.343 -2.00831 -9.45674
upperneck 23.6246 -0.909785 2.69676
head 10.3385 -0.954622 2.42058
rclavicle -2.09718e-014 -7.15625e-015
rhumerus -42.4117 -16.0763 -73.043
rradius 26.0836
rwrist 12.3211
rhand -15.0228 15.0924
rfingers 7.12502
rthumb 11.1428 -14.5917
lclavicle -2.09718e-014 -7.15625e-015
lhumerus -24.0253 -3.29327 83.4362
lradius 45.2925
lwrist -1.94905
lhand -17.1476 25.2799
lfingers 7.12502
lthumb 9.09293 55.0639
rfemur -31.9405 0.0153809 12.5857
rtibia 21.1596
rfoot -4.58542 -5.28086
rtoes -14.4333
lfemur 18.7194 -3.80123 -30.4982
ltibia 20.159
lfoot -9.33343 -6.42181
ltoes -21.8585
101
root 0.731781 16.9342 -3.13204 0.56379 4.37022 7.28105
lowerback 4.75043 -3.0597 -9.87604
upperback 0.507533 -4.55336 2.01374
thorax -1.19923 -2.23898 7.8928
lowerneck -16.0056 -1.94387 -9.37642
upperneck 23.5458 -0.839048 2.5416
head 10.2402 -0.932643 2.36012
rclavicle -8.01102e-014 2.06736e-014
rhumerus -42.9787 -17 -72.2448
rradius 25.3848
rwrist 12.754
rhand -14.9556 15.4132
rfingers 7.12502
rthumb 11.2076 -14.2674
lclavicle -8.01102e-014 2.06736e-014
lhumerus -24.2886 -2.84244 83.2933
lradius 45.5156
lwrist -1.60716
lhand -17.6323 25.72
lfingers 7.12502
lthumb 8.62523 55.5238
rfemur -31.8046 0.890206 12.5608
rtibia 22.4364
rfoot -3.03803 -4.29586
rtoes -13.3006
lfemur 18.6829 -4.04714 -30.1736
ltibia 21.5438
lfoot -7.10676 -7.18729
ltoes -22.4366
102
root 0.705895 16.9624 -2.8443 0.418876 4.32076 6.83313
lowerback 4.77775 -3.07004 -9.55015
upperback 0.362692 -4.55558 2.19893
thorax -1.37625 -2.2263 7.91399
lowerneck -15.8874 -1.85267 -9.41995
upperneck 23.714 -0.686322 2.44567
head 10.2694 -0.882872 2.35576
rclavicle -1.08835e-014 3.10104e-014
rhumerus -43.6495 -17.5068 -71.5044
rradius 24.9461
rwrist 12.9946
rhand -14.6159 14.6462
rfingers 7.12502
rthumb 11.5352 -15.0164
lclavicle -1.08835e-014 3.10104e-014
lhumerus -24.7643 -2.16633 83.2189
lradius 45.7818
lwrist -1.58653
lhand -16.8069 26.3446
lfingers 7.12502
lthumb 9.42167 56.114
rfemur -31.6479 1.65702 12.8545
rtibia 23.4319
rfoot -1.54585 -3.20617
rtoes -12.2268
lfemur 18.3292 -4.26966 -29.612
ltibia 23.3134
lfoot -4.56869 -8.0375
ltoes -22.4383
103
root 0.684243 16.9892 -2.56375 0.320782 4.28926 6.21211
lowerback 4.99414 -3.06017 -8.95439
upperback 0.109202 -4.53537 2.38241
thorax -1.79866 -2.18713 7.7979
lowerneck -15.9823 -1.80394 -9.37154
upperneck 24.2074 -0.605364 2.39842
head 10.4618 -0.860724 2.34841
rclavicle -6.07287e-014 1.82882e-014
rhumerus -44.3636 -18.1547 -70.6988
rradius 24.4388
rwrist 13.3082
rhand -14.2301 13.6164
rfingers 7.12502
rthumb 11.9072 -16.025
lclavicle -6.07287e-014 1.82882e-014
lhumerus -25.1123 -1.53049 83.1264
lradius 45.7562
lwrist -1.53686
lhand -16.0066 27.4128
lfingers 7.12502
lthumb 10.1938 57.1458
rfemur -31.4416 2.2283 13.4496
rtibia 24.3381
rfoot -0.727511 -2.24258
rtoes -12.3533
lfemur 17.6177 -4.69698 -28.9084
ltibia 25.4407
lfoot -1.06215 -8.84254
ltoes -21.3561
104
root 0.66309 17.0159 -2.28318 0.115943 4.39878 5.62016
lowerback 5.21108 -3.09552 -8.40351
upperback 0.0302615 -4.56769 2.5427
thorax -2.02577 -2.19314 7.67621
lowerneck -16.1654 -1.81939 -9.06135
upperneck 24.3782 -0.602201 2.06057
head 10.5583 -0.875772 2.17746
rclavicle -8.79622e-015 -1.98785e-014
rhumerus -44.8809 -18.8868 -69.9891
rradius 24.0009
rwrist 13.8466
rhand -14.1343 13.0131
rfingers 7.12502
rthumb 11.9997 -16.623
lclavicle -8.79622e-015 -1.98785e-014
lhumerus -25.2566 -0.953444 83.0558
lradius 45.6495
lwrist -1.20308
lhand -16.2324 28.6801
lfingers 7.12502
lthumb 9.97596 58.4237
rfemur -30.9317 2.63986 14.0732
rtibia 25.2496
rfoot -0.370793 -1.28293
rtoes -12.2403
lfemur 16.6901 -5.0404 -28.1488
ltibia 27.9727
lfoot 2.892 -9.61349
ltoes -20.8913
105
root 0.647905 17.0359 -2.0023 -0.235687 4.3337 4.9163
lowerback 5.3322 -3.11314 -7.70182
upperback 0.123567 -4.55113 2.72036
thorax -2.03821 -2.1941 7.46998
lowerneck -16.3044 -1.83838 -9.13756
upperneck 24.3748 -0.595081 2.07037
head 10.5845 -0.878116 2.19458
rclavicle 3.60794e-014 -1.19271e-014
rhumerus -45.2673 -19.3086 -69.5167
rradius 23.8142
rwrist 14.1762
rhand -13.8412 12.4822
rfingers 7.12502
rthumb 12.2822 -17.1371
lclavicle 3.60794e-014 -1.19271e-014
lhumerus -25.5808 -0.299472 82.9745
lradius 45.7719
lwrist -0.965866
lhand -16.443 28.8899
lfingers 7.12502
lthumb 9.77272 58.6431
rfemur -30.223 2.8652 15.0196
rtibia 26.2755
rfoot 0.130214 -0.140509
rtoes -10.1727
lfemur 15.6808 -5.17601 -27.3066
ltibia 30.7963
lfoot 6.60557 -9.83153
ltoes -19.7707
106
root 0.632384 17.0572 -1.72815 -0.524712 4.21805 4.04192
lowerback 5.28335 -3.07219 -6.78471
upperback 0.304505 -4.42972 2.88773
thorax -1.89956 -2.15357 7.10871
lowerneck -16.4905 -1.86271 -9.22432
upperneck 24.3312 -0.638245 2.27182
head 10.6068 -0.879593 2.27543
rclavicle 5.725e-014 -3.4191e-014
rhumerus -45.4544 -19.9022 -69.1953
rradius 23.6346
rwrist 14.3215
rhand -13.5756 11.9943
rfingers 7.12502
rthumb 12.5383 -17.6095
lclavicle 5.725e-014 -3.4191e-014
lhumerus -25.7094 0.0334913 82.834
lradius 45.8705
lwrist -0.804162
lhand -15.9431 28.8056
lfingers 7.12502
lthumb 10.2551 58.5356
rfemur -29.5713 2.93306 16.2974
rtibia 27.3449
rfoot 0.249416 0.169076
rtoes -8.71308
lfemur 14.3696 -5.19261 -26.1869
ltibia 33.7663
lfoot 10.369 -10.1257
ltoes -16.4493
107
root 0.615061 17.0886 -1.4628 -0.566667 4.21848 3.46668
lowerback 5.26468 -3.08681 -6.24559
upperback 0.310446 -4.41185 3.06313
thorax -1.91245 -2.14847 6.98542
lowerneck -16.5794 -1.86704 -9.25304
upperneck 24.2196 -0.642443 2.32981
head 10.583 -0.873677 2.29917
rclavicle 1.5704e-014 -2.3059e-014
rhumerus -45.5583 -20.488 -68.7096
rradius 23.2083
rwrist 14.8173
rhand -13.4861 11.9824
rfingers 7.12502
rthumb 12.6246 -17.6161
lclavicle 1.5704e-014 -2.3059e-014
lhumerus -25.7614 0.634362 82.7993
lradius 45.6757
lwrist -0.738847
lhand -15.9573 29.3289
lfingers 7.12502
lthumb 10.2413 59.0596
rfemur -29.1443 2.7381 17.3278
rtibia 28.3682
rfoot 0.161063 0.126162
rtoes -9.14443
lfemur 12.5995 -5.20231 -25.2657
ltibia 36.7357
lfoot 14.6741 -10.7203
ltoes -12.8589
108
root 0.602973 17.1195 -1.19787 -0.590139 3.86558 2.96041
lowerback 5.28415 -2.96014 -5.75776
upperback 0.266543 -4.21097 3.2287
thorax -2.02463 -2.04571 6.87743
lowerneck -16.4745 -1.92815 -9.31244
upperneck 23.944 -0.713214 2.28543
head 10.4675 -0.909446 2.27956
rclavicle 2.30093e-014 -3.33958e-014
rhumerus -45.8545 -21.087 -68.0427
rradius 22.8293
rwrist 15.3771
rhand -13.1559 11.6265
rfingers 7.12502
rthumb 12.9429 -17.9521
lclavicle 2.30093e-014 -3.33958e-014
lhumerus -25.9619 1.2053 82.8233
lradius 45.5236
lwrist -0.628045
lhand -16.0069 30.1321
lfingers 7.12502
lthumb 10.1935 59.8651
rfemur -28.7779 2.81196 18.2639
rtibia 29.2472
rfoot 0.30861 0.663825
rtoes -6.82737
lfemur 10.7745 -5.07421 -24.5481
ltibia 39.6661
lfoot 19.494 -10.8436
ltoes -9.95862
109
root 0.580318 17.1462 -0.923432 -0.956812 3.88548 2.56281
lowerback 5.37649 -2.91117 -5.46239
upperback 0.479069 -4.12925 3.28175
thorax -1.88519 -2.01855 6.75858
lowerneck -16.5866 -1.94326 -9.12525
upperneck 23.7143 -0.749574 2.1861
head 10.4055 -0.914082 2.2048
rclavicle -6.65432e-014 2.62396e-014
rhumerus -46.0937 -21.7994 -67.5712
rradius 22.6631
rwrist 15.9314
rhand -12.9479 11.7074
rfingers 7.12502
rthumb 13.1434 -17.8584
lclavicle -6.65432e-014 2.62396e-014
lhumerus -26.2315 1.50402 82.7603
lradius 45.7171
lwrist -0.424394
lhand -16.7437 30.9444
lfingers 7.12502
lthumb 9.4826 60.711
rfemur -27.8782 3.09335 19.0025
rtibia 29.9517
rfoot 0.571091 0.932818
rtoes -1.97175
lfemur 9.45028 -5.21002 -23.8954
ltibia 42.4634
lfoot 24.1948 -11.0287
ltoes -9.04288
110
root 0.563561 17.1677 -0.650766 -1.22595 4.00091 2.34501
lowerback 5.45786 -2.91501 -5.32284
upperback 0.545695 -4.12853 3.30692
thorax -1.86957 -2.02157 6.7084
lowerneck -16.5276 -1.93358 -9.0739
upperneck 23.6109 -0.766644 2.22162
head 10.3567 -0.910272 2.2055
rclavicle 1.58531e-014 2.46493e-014
rhumerus -46.2632 -22.131 -67.2628
rradius 22.3972
rwrist 16.1725
rhand -13.2404 12.0572
rfingers 7.12502
rthumb 12.8614 -17.5265
lclavicle 1.58531e-014 2.46493e-014
lhumerus -26.7328 1.68098 82.7955
lradius 45.9618
lwrist 0.128682
lhand -18.3516 29.3044
lfingers 7.12502
lthumb 7.93096 59.1356
rfemur -26.8852 3.33059 19.5199
rtibia 30.4247
rfoot 0.747661 0.665673
rtoes 2.65852
lfemur 8.11993 -5.38557 -23.4839
ltibia 45.16
lfoot 28.0773 -11.5094
ltoes -9.69747
111
root 0.549208 17.2103 -0.385869 -1.44677 4.09964 1.94487
lowerback 5.69537 -2.90041 -4.94285
upperback 0.482027 -4.0935 3.35978
thorax -2.09681 -1.99636 6.56528
lowerneck -16.0422 -1.94246 -9.08462
upperneck 23.2626 -0.880859 2.41499
head 10.1441 -0.93308 2.25712
rclavicle 2.18663e-015 9.54166e-015
rhumerus -46.5722 -22.493 -66.9268
rradius 22.1191
rwrist 16.5354
rhand -13.5567 12.3154
rfingers 7.12502
rthumb 12.5565 -17.2873
lclavicle 2.18663e-015 9.54166e-015
lhumerus -27.0797 1.74792 82.8753
lradius 45.7667
lwrist 0.721409
lhand -18.2104 28.4536
lfingers 7.12502
lthumb 8.06726 58.2796
rfemur -25.7488 3.705 20.2368
rtibia 30.6973
rfoot 0.469749 -0.187139
rtoes 2.80193
lfemur 6.57482 -5.43294 -22.8712
ltibia 47.8291
lfoot 32.5608 -12.1824
ltoes -7.28965
112
root 0.533801 17.2576 -0.123328 -1.69203 4.10225 1.41459
lowerback 5.80294 -2.85808 -4.47859
upperback 0.610236 -4.00781 3.4782
thorax -2.05989 -1.96141 6.42323
lowerneck -15.9862 -2.01983 -9.11123
upperneck 22.9883 -1.01923 2.53319
head 10.0436 -0.978315 2.28187
rclavicle 9.74045e-015 8.74653e-015
rhumerus -46.5691 -22.8793 -66.6287
rradius 21.752
rwrist 17.0785
rhand -13.7312 12.8563
rfingers 7.12502
rthumb 12.3883 -16.7566
lclavicle 9.74045e-015 8.74653e-015
lhumerus -26.9488 2.0733 82.9313
lradius 45.3166
lwrist 0.415417
lhand -16.1315 29.325
lfingers 7.12502
lthumb 10.0732 59.0639
rfemur -24.5304 4.28475 21.0799
rtibia 30.7868
rfoot -0.21159 -1.20761
rtoes 3.29054
lfemur 4.83765 -5.39603 -22.1429
ltibia 50.5237
lfoot 38.3719 -12.1636
ltoes 2.27721
113
root 0.508605 17.2903 0.137704 -1.8473 3.98587 0.894661
lowerback 5.78293 -2.73728 -4.11453
upperback 0.718108 -3.82049 3.57822
thorax -1.98052 -1.8753 6.30514
lowerneck -16.0608 -2.1517 -9.05783
upperneck 22.8161 -1.24193 2.65538
head 10.0095 -1.05735 2.28458
rclavicle 4.25399e-014 -2.54444e-014
rhumerus -46.5848 -23.1537 -66.4984
rradius 21.5004
rwrist 17.4176
rhand -13.8254 12.9907
rfingers 7.12502
rthumb 12.2974 -16.6277
lclavicle 4.25399e-014 -2.54444e-014
lhumerus -26.952 2.10939 82.975
lradius 45.012
lwrist 0.110387
lhand -14.5762 25.2242
lfingers 7.12502
lthumb 11.5734 54.8846
rfemur -23.359 5.13691 21.9169
rtibia 30.7642
rfoot -1.06719 -2.18692
rtoes 5.10832
lfemur 2.90273 -5.20182 -21.3463
ltibia 53.2277
lfoot 40.9055 -11.7132
ltoes 4.49656
